# xmcd CD database file
#
# Track frame offsets:
#	150
#	11880
#	31675
#	51240
#	62564
#	72371
#	87821
#	107742
#	119861
#	134768
#	152242
#	167081
#	184049
#	199683
#	215869
#
# Disc length: 3066 seconds
#
# Revision: 4
# Processed by: cddbd v1.5.2PL0 Copyright (c) Steve Scherf et al.
# Submitted via: CDex 1.51
#
DISCID=e10bf80f
DTITLE=Lisa Ono - As Time Goes By
DYEAR=2000
DGENRE=Jazz
TTITLE0=Red Blouse
TTITLE1=Beijo Partido
TTITLE2=Moon River
TTITLE3=So Danco Samba
TTITLE4=Samba De Verao
TTITLE5=O Barquinho
TTITLE6=Palpite Infeliz
TTITLE7=Moonlight Serenade
TTITLE8=Tea For Two
TTITLE9=As Time Goes By
TTITLE10=Angel's Eyes
TTITLE11=I Wish You Love
TTITLE12=Be With Me
TTITLE13=Pretty World
TTITLE14=Yesterday
EXTD=YEAR: 2000
EXTT0=
EXTT1=
EXTT2=
EXTT3=
EXTT4=
EXTT5=
EXTT6=
EXTT7=
EXTT8=
EXTT9=
EXTT10=
EXTT11=
EXTT12=
EXTT13=
EXTT14=
PLAYORDER=
